<svg xmlns="http://www.w3.org/2000/svg" viewBox="0 0 64 64" width="64" height="64">
  <defs>
    <linearGradient id="grad1" x1="0%" y1="0%" x2="100%" y2="100%">
      <stop offset="0%" style="stop-color:#667eea;stop-opacity:1" />
      <stop offset="100%" style="stop-color:#764ba2;stop-opacity:1" />
    </linearGradient>
    <linearGradient id="grad2" x1="0%" y1="0%" x2="100%" y2="100%">
      <stop offset="0%" style="stop-color:#ffd700;stop-opacity:1" />
      <stop offset="100%" style="stop-color:#ffed4e;stop-opacity:1" />
    </linearGradient>
  </defs>
  
  <!-- 背景圆形 -->
  <circle cx="32" cy="32" r="30" fill="url(#grad1)" stroke="#fff" stroke-width="2"/>
  
  <!-- AI大脑图标 -->
  <g transform="translate(16, 12)">
    <!-- 大脑轮廓 -->
    <path d="M8 4c-4.4 0-8 3.6-8 8v16c0 4.4 3.6 8 8 8h16c4.4 0 8-3.6 8-8V12c0-4.4-3.6-8-8-8H8z" 
          fill="none" stroke="#fff" stroke-width="2" stroke-linecap="round"/>
    
    <!-- 神经网络连接线 -->
    <g stroke="#fff" stroke-width="1.5" fill="none">
      <line x1="8" y1="12" x2="16" y2="20"/>
      <line x1="16" y1="12" x2="8" y2="20"/>
      <line x1="16" y1="12" x2="24" y2="20"/>
      <line x1="24" y1="12" x2="16" y2="20"/>
      <line x1="12" y1="8" x2="20" y2="16"/>
      <line x1="20" y1="8" x2="12" y2="16"/>
    </g>
    
    <!-- 神经节点 -->
    <g fill="url(#grad2)">
      <circle cx="8" cy="12" r="2"/>
      <circle cx="16" cy="12" r="2"/>
      <circle cx="24" cy="12" r="2"/>
      <circle cx="8" cy="20" r="2"/>
      <circle cx="16" cy="20" r="2"/>
      <circle cx="24" cy="20" r="2"/>
      <circle cx="12" cy="8" r="1.5"/>
      <circle cx="20" cy="8" r="1.5"/>
      <circle cx="12" cy="24" r="1.5"/>
      <circle cx="20" cy="24" r="1.5"/>
    </g>
  </g>
  
  <!-- 文档图标 -->
  <g transform="translate(20, 42)">
    <rect x="0" y="0" width="16" height="12" rx="2" fill="#fff" opacity="0.9"/>
    <rect x="2" y="2" width="12" height="1" fill="url(#grad1)"/>
    <rect x="2" y="4" width="8" height="1" fill="url(#grad1)"/>
    <rect x="2" y="6" width="10" height="1" fill="url(#grad1)"/>
    <rect x="2" y="8" width="6" height="1" fill="url(#grad1)"/>
  </g>
  
  <!-- 闪光效果 -->
  <g transform="translate(45, 15)" fill="url(#grad2)">
    <path d="M0 4 L2 0 L4 4 L8 2 L4 4 L8 6 L4 4 L2 8 Z" opacity="0.8"/>
  </g>
</svg>